<svg width="70" height="70" viewBox="0 0 70 70" fill="none" xmlns="http://www.w3.org/2000/svg">
<g opacity="0.5">
<path d="M5.83301 5.8335H9.64265C10.3602 5.8335 10.719 5.8335 11.0077 5.96545C11.2621 6.08173 11.4778 6.26874 11.6289 6.50417C11.8003 6.77133 11.8511 7.12651 11.9525 7.83685L13.333 17.5002M13.333 17.5002L16.401 40.0501C16.7904 42.9117 16.985 44.3425 17.6691 45.4195C18.2719 46.3685 19.1362 47.1231 20.1578 47.5925C21.3172 48.1252 22.7612 48.1252 25.6492 48.1252H50.6096C53.3588 48.1252 54.7333 48.1252 55.8566 47.6305C56.8471 47.1944 57.6967 46.4914 58.3105 45.6C59.0066 44.589 59.2638 43.2388 59.7781 40.5382L63.6387 20.2701C63.8198 19.3196 63.9103 18.8444 63.7791 18.4729C63.664 18.147 63.4369 17.8726 63.1384 17.6985C62.798 17.5002 62.3142 17.5002 61.3466 17.5002H13.333ZM29.1663 61.2502C29.1663 62.861 27.8605 64.1668 26.2497 64.1668C24.6388 64.1668 23.333 62.861 23.333 61.2502C23.333 59.6393 24.6388 58.3335 26.2497 58.3335C27.8605 58.3335 29.1663 59.6393 29.1663 61.2502ZM52.4997 61.2502C52.4997 62.861 51.1938 64.1668 49.583 64.1668C47.9722 64.1668 46.6663 62.861 46.6663 61.2502C46.6663 59.6393 47.9722 58.3335 49.583 58.3335C51.1938 58.3335 52.4997 59.6393 52.4997 61.2502Z" stroke="white" stroke-width="5.83333" stroke-linecap="round" stroke-linejoin="round"/>
</g>
</svg>
