<svg width="76" height="76" viewBox="0 0 76 76" fill="none" xmlns="http://www.w3.org/2000/svg">
<path d="M38.0005 0.812012C30.6455 0.812012 23.4557 2.99302 17.3402 7.07924C11.2248 11.1655 6.45837 16.9733 3.64373 23.7685C0.829101 30.5636 0.0926645 38.0408 1.52755 45.2544C2.96244 52.4681 6.50421 59.0943 11.705 64.295C16.9057 69.4958 23.5319 73.0376 30.7456 74.4725C37.9593 75.9073 45.4364 75.1709 52.2315 72.3563C59.0267 69.5416 64.8346 64.7752 68.9208 58.6598C73.007 52.5443 75.188 45.3545 75.188 37.9995C75.1768 28.1402 71.2552 18.688 64.2836 11.7164C57.312 4.74483 47.8598 0.82326 38.0005 0.812012ZM53.173 31.582L38.5955 48.582C38.3143 48.909 37.9697 49.1755 37.5825 49.3655C37.1954 49.5554 36.7737 49.6648 36.343 49.687C35.5384 49.6914 34.7627 49.3872 34.1755 48.837L23.253 38.637C22.7563 38.0464 22.4907 37.2956 22.5056 36.5239C22.5205 35.7523 22.8148 35.0123 23.3339 34.4413C23.8531 33.8702 24.5618 33.5069 25.3285 33.4188C26.0952 33.3306 26.8678 33.5236 27.503 33.962L36.003 41.9095L48.413 27.417C48.6921 27.0989 49.0311 26.8388 49.4106 26.6517C49.7902 26.4646 50.2029 26.3541 50.6251 26.3264C51.0474 26.2988 51.471 26.3546 51.8717 26.4907C52.2724 26.6268 52.6424 26.8405 52.9605 27.1195C53.2786 27.3986 53.5387 27.7376 53.7258 28.1171C53.9129 28.4967 54.0234 28.9094 54.0511 29.3316C54.0787 29.7539 54.0229 30.1775 53.8868 30.5782C53.7507 30.9789 53.5371 31.3489 53.258 31.667L53.173 31.582Z" fill="#FFCB40"/>
</svg>
