<svg width="22" height="22" viewBox="0 0 22 22" fill="none" xmlns="http://www.w3.org/2000/svg">
<g opacity="0.5">
<path d="M10.9998 11.9166C11.5061 11.9166 11.9165 11.5062 11.9165 11C11.9165 10.4937 11.5061 10.0833 10.9998 10.0833C10.4936 10.0833 10.0832 10.4937 10.0832 11C10.0832 11.5062 10.4936 11.9166 10.9998 11.9166Z" stroke="white" stroke-width="2" stroke-linecap="round" stroke-linejoin="round"/>
<path d="M17.4165 11.9166C17.9228 11.9166 18.3332 11.5062 18.3332 11C18.3332 10.4937 17.9228 10.0833 17.4165 10.0833C16.9102 10.0833 16.4998 10.4937 16.4998 11C16.4998 11.5062 16.9102 11.9166 17.4165 11.9166Z" stroke="white" stroke-width="2" stroke-linecap="round" stroke-linejoin="round"/>
<path d="M4.58317 11.9166C5.08943 11.9166 5.49984 11.5062 5.49984 11C5.49984 10.4937 5.08943 10.0833 4.58317 10.0833C4.07691 10.0833 3.6665 10.4937 3.6665 11C3.6665 11.5062 4.07691 11.9166 4.58317 11.9166Z" stroke="white" stroke-width="2" stroke-linecap="round" stroke-linejoin="round"/>
</g>
</svg>
