<svg width="54" height="54" viewBox="0 0 54 54" fill="none" xmlns="http://www.w3.org/2000/svg">
<rect width="54" height="54" rx="4.95" fill="#363636"/>
<path opacity="0.5" d="M10.8574 25.2754C11.1019 25.2754 11.3189 25.3227 11.5082 25.4174C11.6976 25.5081 11.8435 25.6442 11.9461 25.8256C12.0526 26.0071 12.1058 26.226 12.1058 26.4824C12.1058 26.7428 12.0506 26.9637 11.9401 27.1451C11.8336 27.3266 11.6857 27.4626 11.4964 27.5534C11.311 27.6441 11.098 27.6894 10.8574 27.6894H9.37816V29.5H8.97582V25.2754H10.8574ZM10.7686 27.3463C11.0566 27.3463 11.2834 27.2753 11.4491 27.1333C11.6187 26.9873 11.7035 26.7704 11.7035 26.4824C11.7035 26.2102 11.6226 25.9992 11.4609 25.8493C11.3031 25.6955 11.0684 25.6186 10.7568 25.6186H9.37816V27.3463H10.7686ZM14.0813 26.7783C13.8683 26.7783 13.679 26.8276 13.5133 26.9262C13.3516 27.0208 13.2254 27.153 13.1347 27.3226C13.0479 27.4883 13.0045 27.6737 13.0045 27.8788V29.5H12.6317V26.4469H12.9749V27.1629H12.9867C13.0775 26.9222 13.2175 26.7368 13.4068 26.6067C13.5962 26.4726 13.8151 26.4055 14.0636 26.4055H14.1405V26.7783H14.0813ZM15.7186 26.3582C16.0184 26.3582 16.2768 26.4311 16.4937 26.5771C16.7107 26.7191 16.8763 26.9143 16.9907 27.1629C17.1051 27.4074 17.1623 27.6776 17.1623 27.9735C17.1623 28.2732 17.1051 28.5474 16.9907 28.7959C16.8763 29.0405 16.7087 29.2337 16.4878 29.3757C16.2708 29.5178 16.0144 29.5888 15.7186 29.5888C15.4228 29.5888 15.1644 29.5178 14.9435 29.3757C14.7265 29.2298 14.5609 29.0345 14.4465 28.79C14.3321 28.5454 14.2749 28.2732 14.2749 27.9735C14.2749 27.6737 14.3321 27.4015 14.4465 27.1569C14.5609 26.9124 14.7265 26.7191 14.9435 26.5771C15.1644 26.4311 15.4228 26.3582 15.7186 26.3582ZM14.6477 27.9735C14.6477 28.2022 14.6891 28.4172 14.7719 28.6184C14.8587 28.8156 14.9829 28.9754 15.1447 29.0977C15.3064 29.216 15.4977 29.2752 15.7186 29.2752C15.9434 29.2752 16.1367 29.214 16.2985 29.0917C16.4602 28.9695 16.5825 28.8097 16.6653 28.6125C16.7481 28.4113 16.7895 28.1983 16.7895 27.9735C16.7895 27.7526 16.7481 27.5435 16.6653 27.3463C16.5864 27.1451 16.4641 26.9834 16.2985 26.8611C16.1367 26.7349 15.9415 26.6718 15.7127 26.6718C15.4918 26.6718 15.3005 26.7329 15.1388 26.8552C14.981 26.9735 14.8587 27.1333 14.7719 27.3344C14.6891 27.5317 14.6477 27.7447 14.6477 27.9735ZM20.4027 29.5H20.0596V28.9202H20.0477C19.9925 29.0543 19.9057 29.1726 19.7874 29.2752C19.673 29.3777 19.5428 29.4546 19.3969 29.5059C19.2509 29.5611 19.105 29.5888 18.959 29.5888C18.6671 29.5888 18.4167 29.5197 18.2076 29.3817C18.0025 29.2397 17.8467 29.0464 17.7402 28.8018C17.6376 28.5573 17.5863 28.2811 17.5863 27.9735C17.5863 27.6737 17.6376 27.4015 17.7402 27.1569C17.8427 26.9124 17.9966 26.7191 18.2017 26.5771C18.4107 26.4311 18.6632 26.3582 18.959 26.3582C19.1129 26.3582 19.2608 26.3858 19.4028 26.441C19.5487 26.4923 19.675 26.5692 19.7815 26.6718C19.8919 26.7704 19.9708 26.8887 20.0181 27.0268H20.03V25.2754H20.4027V29.5ZM17.9591 27.9735C17.9591 28.2062 17.9946 28.4212 18.0656 28.6184C18.1405 28.8156 18.253 28.9754 18.4029 29.0977C18.5527 29.216 18.7381 29.2752 18.959 29.2752C19.1957 29.2752 19.3929 29.218 19.5507 29.1036C19.7124 28.9852 19.8328 28.8275 19.9116 28.6302C19.9905 28.433 20.03 28.2141 20.03 27.9735C20.03 27.7368 19.9925 27.5218 19.9176 27.3285C19.8426 27.1313 19.7243 26.9735 19.5626 26.8552C19.4048 26.7329 19.2036 26.6718 18.959 26.6718C18.7342 26.6718 18.5468 26.7329 18.3969 26.8552C18.247 26.9775 18.1366 27.1372 18.0656 27.3344C17.9946 27.5317 17.9591 27.7447 17.9591 27.9735ZM21.4809 28.3581C21.4809 28.5513 21.5026 28.715 21.546 28.8491C21.5933 28.9833 21.6762 29.0878 21.7945 29.1627C21.9128 29.2377 22.0785 29.2752 22.2915 29.2752C22.4966 29.2752 22.6682 29.2199 22.8063 29.1095C22.9443 28.9951 23.0469 28.8452 23.1139 28.6598C23.181 28.4705 23.2145 28.2654 23.2145 28.0445V26.4469H23.5873V29.5H23.2441V28.9497H23.2323C23.1337 29.1509 22.9917 29.3087 22.8063 29.4231C22.6209 29.5335 22.4118 29.5888 22.1791 29.5888C21.8083 29.5888 21.5361 29.4901 21.3626 29.2929C21.1929 29.0917 21.1081 28.8038 21.1081 28.4291V26.4469H21.4809V28.3581ZM25.5819 26.3582C25.9369 26.3582 26.2209 26.4509 26.4339 26.6363C26.6469 26.8216 26.7751 27.078 26.8185 27.4054H26.4458C26.3945 27.1648 26.2959 26.9834 26.1499 26.8611C26.004 26.7349 25.8146 26.6718 25.5819 26.6718C25.3571 26.6718 25.1638 26.7349 25.0021 26.8611C24.8403 26.9834 24.7181 27.1431 24.6352 27.3404C24.5524 27.5376 24.511 27.7486 24.511 27.9735C24.511 28.1983 24.5524 28.4113 24.6352 28.6125C24.7181 28.8097 24.8403 28.9695 25.0021 29.0917C25.1638 29.214 25.3571 29.2752 25.5819 29.2752C25.7279 29.2752 25.8659 29.2397 25.9961 29.1687C26.1263 29.0937 26.2328 28.9912 26.3156 28.861C26.4024 28.7269 26.4537 28.575 26.4694 28.4054H26.8422C26.8106 28.6499 26.7377 28.861 26.6233 29.0385C26.5128 29.216 26.3669 29.3521 26.1854 29.4467C26.0079 29.5414 25.8068 29.5888 25.5819 29.5888C25.2861 29.5888 25.0277 29.5178 24.8068 29.3757C24.5899 29.2298 24.4242 29.0345 24.3098 28.79C24.1954 28.5454 24.1382 28.2732 24.1382 27.9735C24.1382 27.6658 24.1974 27.3897 24.3157 27.1451C24.434 26.9005 24.6017 26.7092 24.8186 26.5712C25.0395 26.4292 25.294 26.3582 25.5819 26.3582ZM27.9519 26.4469H28.5732V26.7605H27.9519V28.8432C27.9519 28.9813 27.9756 29.0799 28.0229 29.1391C28.0742 29.1943 28.1649 29.2219 28.2951 29.2219C28.374 29.2219 28.4667 29.216 28.5732 29.2042V29.5237C28.5337 29.5237 28.4864 29.5256 28.4312 29.5296C28.3799 29.5335 28.3168 29.5355 28.2419 29.5355C28.0762 29.5355 27.944 29.5158 27.8454 29.4763C27.7508 29.4329 27.6817 29.3639 27.6383 29.2692C27.5989 29.1746 27.5792 29.0424 27.5792 28.8728V26.7605H27.0467V26.4469H27.5792V25.5298H27.9519V26.4469ZM31.1365 25.873H30.7637V25.2754H31.1365V25.873ZM31.1365 29.5H30.7637V26.4469H31.1365V29.5ZM33.2107 26.3582C33.4237 26.3582 33.6091 26.4114 33.7669 26.5179C33.9287 26.6205 34.0352 26.7664 34.0864 26.9558C34.1732 26.7625 34.3034 26.6146 34.4769 26.512C34.6505 26.4094 34.8458 26.3582 35.0627 26.3582C35.398 26.3582 35.6485 26.4489 35.8141 26.6303C35.9838 26.8078 36.0686 27.0702 36.0686 27.4173V29.5H35.6958V27.4409C35.6958 27.1727 35.6366 26.9775 35.5183 26.8552C35.4039 26.7329 35.2225 26.6718 34.974 26.6718C34.6939 26.6718 34.4848 26.7684 34.3468 26.9617C34.2127 27.155 34.1456 27.4271 34.1456 27.7782V29.5H33.7728V27.435C33.7728 27.1865 33.7196 26.9972 33.6131 26.867C33.5066 26.7368 33.3468 26.6718 33.1338 26.6718C32.8301 26.6718 32.6013 26.7743 32.4475 26.9794C32.2976 27.1806 32.2226 27.4528 32.2226 27.796V29.5H31.8499V26.4469H32.193V26.9617H32.2108C32.4199 26.5593 32.7532 26.3582 33.2107 26.3582ZM37.9857 26.3582C38.7312 26.3582 39.104 26.6856 39.104 27.3404V28.9616C39.104 29.1115 39.1769 29.1864 39.3229 29.1864C39.3623 29.1864 39.4018 29.1785 39.4412 29.1627V29.4763C39.3623 29.4921 39.2834 29.5 39.2045 29.5C39.0428 29.5 38.9284 29.4606 38.8614 29.3817C38.7943 29.3028 38.7608 29.1706 38.7608 28.9852V28.9675H38.7489C38.6464 29.1253 38.5419 29.2495 38.4354 29.3402C38.3288 29.431 38.2105 29.4941 38.0803 29.5296C37.9541 29.569 37.8062 29.5888 37.6366 29.5888C37.4315 29.5888 37.252 29.5552 37.0981 29.4882C36.9443 29.4172 36.824 29.3146 36.7372 29.1805C36.6544 29.0464 36.613 28.8846 36.613 28.6953C36.613 28.4034 36.7136 28.1845 36.9147 28.0385C37.0212 27.9636 37.1573 27.9025 37.323 27.8551C37.4926 27.8078 37.751 27.7664 38.0981 27.7309C38.2756 27.7111 38.4038 27.6914 38.4827 27.6717C38.5616 27.652 38.6227 27.6145 38.6661 27.5593C38.7095 27.5041 38.7312 27.4173 38.7312 27.2989C38.7312 27.078 38.6641 26.9183 38.53 26.8197C38.3959 26.7211 38.1967 26.6718 37.9324 26.6718C37.68 26.6718 37.4827 26.7329 37.3407 26.8552C37.1987 26.9735 37.1238 27.149 37.1159 27.3818H36.7431C36.7629 27.0465 36.8792 26.7921 37.0922 26.6185C37.3052 26.4449 37.603 26.3582 37.9857 26.3582ZM38.7194 27.8315C38.6957 27.8709 38.6523 27.9025 38.5892 27.9261C38.53 27.9458 38.4452 27.9636 38.3348 27.9794L38.1513 28.009C37.8949 28.0405 37.7076 28.0721 37.5892 28.1036C37.4038 28.151 37.2559 28.216 37.1455 28.2989C37.039 28.3817 36.9857 28.506 36.9857 28.6716C36.9857 28.79 37.0173 28.8965 37.0804 28.9912C37.1435 29.0819 37.2263 29.1529 37.3289 29.2042C37.4315 29.2515 37.5439 29.2752 37.6662 29.2752C37.8673 29.2752 38.0488 29.2357 38.2105 29.1568C38.3722 29.074 38.4985 28.9616 38.5892 28.8196C38.6839 28.6736 38.7312 28.5079 38.7312 28.3226V27.8315H38.7194ZM41.0716 26.3582C41.2136 26.3582 41.3477 26.3858 41.474 26.441C41.6041 26.4923 41.7185 26.5653 41.8171 26.6599C41.9158 26.7506 41.9907 26.8552 42.042 26.9735H42.0538V26.4469H42.4266V29.2633C42.4266 29.7485 42.3161 30.1114 42.0952 30.352C41.8743 30.5966 41.5351 30.7189 41.0775 30.7189C40.8488 30.7189 40.6397 30.6834 40.4504 30.6124C40.265 30.5414 40.1131 30.4349 39.9948 30.2929C39.8804 30.1548 39.8173 29.9891 39.8054 29.7958H40.1782C40.2097 29.9891 40.3044 30.139 40.4622 30.2455C40.62 30.352 40.8231 30.4053 41.0716 30.4053C41.4109 30.4053 41.6594 30.3086 41.8171 30.1154C41.9749 29.9221 42.0538 29.6381 42.0538 29.2633V28.8373H42.042C41.9552 29.0345 41.825 29.1884 41.6515 29.2988C41.4779 29.4093 41.2846 29.4645 41.0716 29.4645C40.7718 29.4645 40.5174 29.4014 40.3084 29.2752C40.1032 29.145 39.9494 28.9635 39.8468 28.7308C39.7443 28.4941 39.693 28.216 39.693 27.8965C39.693 27.6046 39.7482 27.3423 39.8587 27.1096C39.9731 26.8729 40.1348 26.6895 40.3439 26.5593C40.5529 26.4252 40.7955 26.3582 41.0716 26.3582ZM40.0658 27.938C40.0658 28.1549 40.1032 28.3561 40.1782 28.5415C40.2531 28.7229 40.3655 28.8708 40.5154 28.9852C40.6693 29.0957 40.8547 29.1509 41.0716 29.1509C41.2689 29.1509 41.4404 29.0977 41.5864 28.9912C41.7363 28.8807 41.8507 28.7328 41.9296 28.5474C42.0124 28.362 42.0538 28.1589 42.0538 27.938C42.0538 27.7171 42.0183 27.5119 41.9473 27.3226C41.8803 27.1293 41.7718 26.9735 41.6219 26.8552C41.472 26.7329 41.2866 26.6718 41.0657 26.6718C40.8606 26.6718 40.6811 26.727 40.5273 26.8374C40.3774 26.9439 40.263 27.0938 40.1841 27.2871C40.1052 27.4764 40.0658 27.6934 40.0658 27.938ZM44.3594 26.3582C44.6395 26.3582 44.8801 26.4272 45.0812 26.5653C45.2824 26.7033 45.4363 26.8966 45.5428 27.1451C45.6493 27.3897 45.7025 27.6697 45.7025 27.9853V28.074H43.3535C43.3575 28.2831 43.3969 28.4803 43.4719 28.6657C43.5468 28.8472 43.6592 28.9951 43.8091 29.1095C43.959 29.2199 44.1424 29.2752 44.3594 29.2752C44.6079 29.2752 44.813 29.2101 44.9747 29.0799C45.1404 28.9458 45.2548 28.7505 45.3179 28.4941H45.6907C45.6039 28.8649 45.4501 29.141 45.2292 29.3225C45.0122 29.5 44.7223 29.5888 44.3594 29.5888C44.0596 29.5888 43.8072 29.5217 43.602 29.3876C43.3969 29.2495 43.2411 29.0582 43.1346 28.8136C43.032 28.5691 42.9808 28.289 42.9808 27.9735C42.9808 27.6855 43.0301 27.4192 43.1287 27.1747C43.2312 26.9262 43.3851 26.729 43.5902 26.583C43.7993 26.4331 44.0557 26.3582 44.3594 26.3582ZM45.3298 27.7605C45.3219 27.5672 45.2785 27.3877 45.1996 27.222C45.1207 27.0563 45.0083 26.9242 44.8623 26.8256C44.7164 26.723 44.5468 26.6718 44.3535 26.6718C44.176 26.6718 44.0162 26.7171 43.8742 26.8078C43.7362 26.8946 43.6218 27.0208 43.531 27.1865C43.4403 27.3482 43.3811 27.5396 43.3535 27.7605H45.3298Z" fill="white"/>
</svg>
