<svg width="21" height="21" viewBox="0 0 21 21" fill="none" xmlns="http://www.w3.org/2000/svg">
<g clip-path="url(#clip0_1480_3190)">
<path d="M10.5 21C16.299 21 21 16.299 21 10.5C21 4.70101 16.299 0 10.5 0C4.70101 0 0 4.70101 0 10.5C0 16.299 4.70101 21 10.5 21Z" fill="#F0F0F0"/>
<path d="M20.9111 9.13045H11.8696H11.8696V0.0888809C11.4213 0.0305156 10.9642 0 10.5 0C10.0358 0 9.57875 0.0305156 9.13045 0.0888809V9.13037V9.13041H0.0888809C0.0305156 9.57875 0 10.0358 0 10.5C0 10.9643 0.0305156 11.4213 0.0888809 11.8696H9.13037H9.13041V20.9111C9.57875 20.9695 10.0358 21 10.5 21C10.9642 21 11.4213 20.9695 11.8696 20.9111V11.8696V11.8696H20.9111C20.9695 11.4213 21 10.9643 21 10.5C21 10.0358 20.9695 9.57875 20.9111 9.13045Z" fill="#D80027"/>
<path d="M6.391 5.02194V3.65234H5.02145V5.02194H3.65186V6.39149H5.02145V7.76104H6.391V6.39149H7.76055V5.02194H6.391Z" fill="#D80027"/>
<path d="M15.9784 5.02194V3.65234H14.6088V5.02194H13.2393V6.39149H14.6088V7.76104H15.9784V6.39149H17.348V5.02194H15.9784Z" fill="#D80027"/>
<path d="M6.391 14.6098V13.2402H5.02145V14.6098H3.65186V15.9793H5.02145V17.3489H6.391V15.9793H7.76055V14.6098H6.391Z" fill="#D80027"/>
<path d="M15.9784 14.6098V13.2402H14.6088V14.6098H13.2393V15.9793H14.6088V17.3489H15.9784V15.9793H17.348V14.6098H15.9784Z" fill="#D80027"/>
</g>
<defs>
<clipPath id="clip0_1480_3190">
<rect width="21" height="21" fill="white"/>
</clipPath>
</defs>
</svg>
