<svg width="26" height="26" viewBox="0 0 26 26" fill="none" xmlns="http://www.w3.org/2000/svg">
<g filter="url(#filter0_d_121_1001)">
<path fill-rule="evenodd" clip-rule="evenodd" d="M19.5 10.4094L19.4999 10.444C19.4998 10.4585 19.4997 10.473 19.4995 10.4876C19.4998 10.5046 19.5 10.5217 19.5 10.5389C19.5 13.2497 17.3881 15.6491 15.9749 17.2548C15.5648 17.7207 15.2136 18.1198 14.9898 18.4402C14.1939 19.5801 13.7738 20.8149 13.6633 21.2899C13.6633 21.6475 13.3663 21.9375 13 21.9375C12.6337 21.9375 12.3367 21.6475 12.3367 21.2899C12.2262 20.8149 11.8061 19.5801 11.0102 18.4402C10.7864 18.1198 10.4352 17.7207 10.0251 17.2548C8.61191 15.6491 6.5 13.2497 6.5 10.5389C6.5 10.5217 6.50016 10.5046 6.50049 10.4876C6.50016 10.4616 6.5 10.4355 6.5 10.4094C6.5 6.90411 9.41014 4.0625 13 4.0625C16.5899 4.0625 19.5 6.90411 19.5 10.4094ZM13 12.7409C14.392 12.7409 15.5204 11.6391 15.5204 10.2799C15.5204 8.92069 14.392 7.81884 13 7.81884C11.608 7.81884 10.4796 8.92069 10.4796 10.2799C10.4796 11.6391 11.608 12.7409 13 12.7409Z" fill="#34A851"/>
<path d="M18.773 7.4899C17.9771 5.99238 16.588 4.84376 14.9096 4.34082L11.1765 8.581C11.6355 8.11142 12.2828 7.81888 13 7.81888C14.392 7.81888 15.5204 8.92073 15.5204 10.2799C15.5204 10.8344 15.3326 11.3461 15.0158 11.7576L18.773 7.4899Z" fill="#4285F5"/>
<path d="M10.1005 17.3407C10.0757 17.3124 10.0505 17.2839 10.0252 17.255C9.09361 16.1966 7.85849 14.7934 7.12476 13.1834L11.0047 8.77637C10.6755 9.19225 10.4796 9.71384 10.4796 10.2801C10.4796 11.6393 11.608 12.7412 13 12.7412C13.7052 12.7412 14.3426 12.4585 14.8001 12.0028L10.1005 17.3407Z" fill="#FFCB40"/>
<path d="M8.03796 6.30957C7.07856 7.41556 6.5 8.84655 6.5 10.4095C6.5 10.4356 6.50016 10.4616 6.50049 10.4877C6.50016 10.5047 6.5 10.5218 6.5 10.539C6.5 11.4629 6.74534 12.3507 7.12473 13.1832L10.9981 8.78362L8.03796 6.30957Z" fill="#E74335"/>
<path d="M14.9095 4.34082C14.3057 4.1599 13.6645 4.0625 13 4.0625C11.0108 4.0625 9.23027 4.93502 8.03796 6.30949L10.9981 8.78351L11.0046 8.7762C11.0584 8.70818 11.1158 8.64298 11.1765 8.58087L14.9095 4.34082Z" fill="#1A73E6"/>
</g>
<defs>
<filter id="filter0_d_121_1001" x="-1.625" y="-0.8125" width="29.25" height="29.25" filterUnits="userSpaceOnUse" color-interpolation-filters="sRGB">
<feFlood flood-opacity="0" result="BackgroundImageFix"/>
<feColorMatrix in="SourceAlpha" type="matrix" values="0 0 0 0 0 0 0 0 0 0 0 0 0 0 0 0 0 0 127 0" result="hardAlpha"/>
<feOffset dy="0.8125"/>
<feGaussianBlur stdDeviation="0.8125"/>
<feComposite in2="hardAlpha" operator="out"/>
<feColorMatrix type="matrix" values="0 0 0 0 0.0392157 0 0 0 0 0.0496732 0 0 0 0 0.0705882 0 0 0 0.05 0"/>
<feBlend mode="normal" in2="BackgroundImageFix" result="effect1_dropShadow_121_1001"/>
<feBlend mode="normal" in="SourceGraphic" in2="effect1_dropShadow_121_1001" result="shape"/>
</filter>
</defs>
</svg>
