<svg width="111" height="46" viewBox="0 0 111 46" fill="none" xmlns="http://www.w3.org/2000/svg">
<g clip-path="url(#clip0_1_3153)">
<path fill-rule="evenodd" clip-rule="evenodd" d="M1.90926 38.8763C1.58856 38.841 1.35736 39.286 1.93163 39.3354C2.72965 39.4061 3.11746 38.622 3.07272 37.9721C3.00559 37.0749 2.15537 36.4391 1.24549 36.8983C0.432561 37.3645 0.0223674 38.0215 -6.75605e-06 38.8692C-0.029839 39.9712 0.395271 40.9885 1.53635 41.3982C2.23741 41.6525 3.08763 41.5818 4.0721 41.1863C5.82474 40.3244 7.50281 37.5977 9.11375 33.006C11.4407 27.2769 12.5967 24.4089 12.5967 24.4089C12.6041 21.7951 12.6116 20.4883 12.6116 20.4883C10.7023 25.1082 9.74768 27.4182 9.74768 27.4182C9.65819 27.6725 7.07024 35.1111 4.62399 38.7632C4.10939 39.5262 3.03543 40.6635 2.08825 40.5646C1.70043 40.5293 1.27532 40.3315 1.01429 39.7452C0.723426 39.0882 0.812922 38.2476 1.23057 37.8237C1.81976 37.2233 2.5954 37.3363 2.69235 38.2334C2.71473 38.4524 2.64761 38.622 2.56557 38.7491C2.33437 39.1023 2.16283 38.9045 1.90926 38.8763Z" fill="#F7CB57"/>
<path fill-rule="evenodd" clip-rule="evenodd" d="M14.8637 27.5319C13.6182 28.8529 12.9917 29.5099 12.9917 29.5099C13.0663 20.8068 13.111 16.4482 13.111 16.4482C14.4013 16.6319 15.0427 16.4482 15.0427 16.4482C14.9233 23.6537 14.8637 27.539 14.8637 27.539" fill="#F7CB57"/>
<path fill-rule="evenodd" clip-rule="evenodd" d="M12.9546 33.2667C11.8209 34.7926 10.7395 36.0218 9.71777 36.9613C11.806 30.8791 15.3188 26.683 20.2262 24.7968C23.3809 23.6595 26.7072 25.0582 23.8359 28.3925C23.1125 29.1907 22.3667 29.5369 21.6059 29.4238C20.7408 29.2967 20.2635 28.8305 20.2336 27.9898C20.2187 27.5448 20.3977 27.1351 20.7855 26.7607C21.1883 26.4357 21.5985 26.2874 22.0161 26.3156C23.008 26.3792 23.1423 27.2269 22.7097 27.9616C22.747 26.8384 22.0385 26.7041 21.4866 27.0644C21.0466 27.354 20.9645 27.7638 21.0391 28.0605C21.151 28.5267 21.7178 28.781 22.568 28.2583C23.008 27.9898 23.4108 27.4247 23.545 26.8596C23.7911 25.8282 23.008 25.1218 21.9341 25.4891C20.4947 25.9059 18.8763 26.9726 17.0863 28.6962C16.0198 29.6852 15.3113 30.7166 14.9533 31.7833C15.0503 35.3577 15.3934 38.2823 15.99 40.5358C14.7967 40.9243 13.4916 40.9031 12.0894 40.4792C12.88 37.5335 13.1709 35.1246 12.9695 33.2597" fill="#F7CB57"/>
<path fill-rule="evenodd" clip-rule="evenodd" d="M14.1105 6.80462C15.6394 6.79755 17.1907 6.60682 18.7644 6.23242C20.5841 11.3822 21.494 13.9535 21.494 13.9535C19.1969 15.2251 16.7358 15.8891 14.1105 15.9386C11.4853 15.8891 9.03159 15.2251 6.72705 13.9535C6.72705 13.9535 7.63693 11.3822 9.4567 6.23242C11.0304 6.60682 12.5816 6.79755 14.1105 6.80462Z" fill="#F7CB57"/>
<path fill-rule="evenodd" clip-rule="evenodd" d="M10.4635 17.041C10.7096 17.041 10.9035 17.2317 10.9035 17.4578C10.9035 17.6839 10.7021 17.8746 10.4635 17.8746C10.2248 17.8746 10.0234 17.6839 10.0234 17.4578C10.0234 17.2317 10.2248 17.041 10.4635 17.041Z" fill="#F7CB57"/>
<path fill-rule="evenodd" clip-rule="evenodd" d="M10.4635 18.0371C10.7096 18.0371 10.9035 18.2278 10.9035 18.4539C10.9035 18.6799 10.7021 18.8707 10.4635 18.8707C10.2248 18.8707 10.0234 18.6799 10.0234 18.4539C10.0234 18.2278 10.2248 18.0371 10.4635 18.0371Z" fill="#F7CB57"/>
<path fill-rule="evenodd" clip-rule="evenodd" d="M10.4635 19.0752C10.7096 19.0752 10.9035 19.2659 10.9035 19.492C10.9035 19.718 10.7021 19.9088 10.4635 19.9088C10.2248 19.9088 10.0234 19.718 10.0234 19.492C10.0234 19.2659 10.2248 19.0752 10.4635 19.0752Z" fill="#F7CB57"/>
<path fill-rule="evenodd" clip-rule="evenodd" d="M10.4637 20.0928C10.8814 20.0928 11.217 20.4107 11.217 20.8063C11.217 21.2018 10.8814 21.5197 10.4637 21.5197C10.0461 21.5197 9.71045 21.2018 9.71045 20.8063C9.71045 20.4107 10.0461 20.0928 10.4637 20.0928Z" fill="#F7CB57"/>
<path fill-rule="evenodd" clip-rule="evenodd" d="M10.4635 16.002C10.7096 16.002 10.9035 16.1927 10.9035 16.4187C10.9035 16.6448 10.7021 16.8355 10.4635 16.8355C10.2248 16.8355 10.0234 16.6448 10.0234 16.4187C10.0234 16.1927 10.2248 16.002 10.4635 16.002Z" fill="#F7CB57"/>
</g>
<path d="M31.0409 24L38.8945 6.54738H42.0859L49.9645 24H46.5737L39.817 8.26771H41.1135L34.3818 24H31.0409ZM34.6561 19.961L35.5287 17.4179H44.9531L45.8257 19.961H34.6561ZM52.184 24V6.54738H59.3646C60.9104 6.54738 62.2318 6.79671 63.3288 7.29535C64.4424 7.794 65.2984 8.50872 65.8968 9.43953C66.4952 10.3703 66.7944 11.4757 66.7944 12.7555C66.7944 14.0354 66.4952 15.1407 65.8968 16.0715C65.2984 16.9857 64.4424 17.6921 63.3288 18.1908C62.2318 18.6728 60.9104 18.9138 59.3646 18.9138H53.9792L55.4252 17.4428V24H52.184ZM63.603 24L59.19 17.6672H62.6556L67.0936 24H63.603ZM55.4252 17.7919L53.9792 16.2461H59.215C60.6444 16.2461 61.7165 15.9386 62.4312 15.3236C63.1626 14.7086 63.5283 13.8525 63.5283 12.7555C63.5283 11.6419 63.1626 10.7859 62.4312 10.1875C61.7165 9.58912 60.6444 9.28994 59.215 9.28994H53.9792L55.4252 7.69427V17.7919ZM73.7176 24V9.28994H67.9333V6.54738H82.7431V9.28994H76.9588V24H73.7176Z" fill="#F7CB57"/>
<path d="M31.3032 42.165V34.1659H32.1488V41.4337H36.6283V42.165H31.3032ZM38.0324 42.165V34.1659H38.878V42.165H38.0324ZM44.9889 42.2336C44.3794 42.2336 43.8156 42.1346 43.2976 41.9365C42.7872 41.7308 42.3415 41.4451 41.9606 41.0794C41.5873 40.7138 41.294 40.2833 41.0807 39.7882C40.875 39.293 40.7722 38.7521 40.7722 38.1655C40.7722 37.5789 40.875 37.038 41.0807 36.5428C41.294 36.0476 41.5911 35.6172 41.972 35.2515C42.353 34.8858 42.7986 34.604 43.309 34.4059C43.8271 34.2002 44.3908 34.0974 45.0003 34.0974C45.6097 34.0974 46.1659 34.1926 46.6687 34.383C47.1791 34.5735 47.6133 34.863 47.9714 35.2515L47.4457 35.7886C47.1105 35.4534 46.741 35.2134 46.3373 35.0687C45.9335 34.9239 45.4993 34.8516 45.0346 34.8516C44.5394 34.8516 44.0823 34.9354 43.6633 35.103C43.2519 35.2629 42.89 35.4953 42.5777 35.8C42.273 36.0971 42.033 36.4476 41.8578 36.8513C41.6902 37.2475 41.6064 37.6855 41.6064 38.1655C41.6064 38.6378 41.6902 39.0759 41.8578 39.4796C42.033 39.8834 42.273 40.2376 42.5777 40.5424C42.89 40.8395 43.2519 41.0718 43.6633 41.2394C44.0823 41.3994 44.5356 41.4794 45.0231 41.4794C45.4802 41.4794 45.9107 41.4108 46.3144 41.2737C46.7258 41.1366 47.1029 40.9042 47.4457 40.5766L47.9257 41.2166C47.5448 41.5518 47.0991 41.807 46.5887 41.9822C46.0783 42.1498 45.545 42.2336 44.9889 42.2336ZM47.1143 41.1137V38.1655H47.9257V41.2166L47.1143 41.1137ZM56.1698 34.1659H57.004V42.165H56.1698V34.1659ZM51.1646 42.165H50.319V34.1659H51.1646V42.165ZM56.2498 38.474H51.0732V37.7312H56.2498V38.474ZM61.1689 42.165V34.8973H58.3578V34.1659H64.8257V34.8973H62.0146V42.165H61.1689ZM75.0181 34.1659H75.8523V42.165H75.0181V34.1659ZM70.013 42.165H69.1673V34.1659H70.013V42.165ZM75.0981 38.474H69.9215V37.7312H75.0981V38.474ZM81.9599 42.2336C81.3581 42.2336 80.7982 42.1346 80.2801 41.9365C79.7697 41.7308 79.324 41.4451 78.9431 41.0794C78.5698 40.7062 78.2765 40.2757 78.0632 39.7882C77.8575 39.293 77.7547 38.7521 77.7547 38.1655C77.7547 37.5789 77.8575 37.0418 78.0632 36.5542C78.2765 36.059 78.5698 35.6286 78.9431 35.2629C79.324 34.8897 79.7697 34.604 80.2801 34.4059C80.7906 34.2002 81.3505 34.0974 81.9599 34.0974C82.5618 34.0974 83.1179 34.2002 83.6283 34.4059C84.1388 34.604 84.5806 34.8858 84.9539 35.2515C85.3348 35.6172 85.6281 36.0476 85.8338 36.5428C86.0471 37.038 86.1538 37.5789 86.1538 38.1655C86.1538 38.7521 86.0471 39.293 85.8338 39.7882C85.6281 40.2833 85.3348 40.7138 84.9539 41.0794C84.5806 41.4451 84.1388 41.7308 83.6283 41.9365C83.1179 42.1346 82.5618 42.2336 81.9599 42.2336ZM81.9599 41.4794C82.4399 41.4794 82.8817 41.3994 83.2855 41.2394C83.6969 41.0718 84.0511 40.8395 84.3483 40.5424C84.653 40.2376 84.8891 39.8872 85.0567 39.491C85.2243 39.0873 85.3081 38.6454 85.3081 38.1655C85.3081 37.6855 85.2243 37.2475 85.0567 36.8513C84.8891 36.4476 84.653 36.0971 84.3483 35.8C84.0511 35.4953 83.6969 35.2629 83.2855 35.103C82.8817 34.9354 82.4399 34.8516 81.9599 34.8516C81.48 34.8516 81.0343 34.9354 80.623 35.103C80.2116 35.2629 79.8535 35.4953 79.5488 35.8C79.2517 36.0971 79.0155 36.4476 78.8403 36.8513C78.6727 37.2475 78.5889 37.6855 78.5889 38.1655C78.5889 38.6378 78.6727 39.0759 78.8403 39.4796C79.0155 39.8834 79.2517 40.2376 79.5488 40.5424C79.8535 40.8395 80.2116 41.0718 80.623 41.2394C81.0343 41.3994 81.48 41.4794 81.9599 41.4794ZM91.2717 42.2336C90.2508 42.2336 89.4471 41.9403 88.8605 41.3537C88.2739 40.7671 87.9806 39.8986 87.9806 38.7483V34.1659H88.8262V38.714C88.8262 39.6586 89.0396 40.3557 89.4662 40.8052C89.8928 41.2547 90.4946 41.4794 91.2717 41.4794C92.0564 41.4794 92.662 41.2547 93.0886 40.8052C93.5152 40.3557 93.7286 39.6586 93.7286 38.714V34.1659H94.5513V38.7483C94.5513 39.8986 94.258 40.7671 93.6714 41.3537C93.0924 41.9403 92.2925 42.2336 91.2717 42.2336ZM99.305 42.2336C98.7108 42.2336 98.1394 42.1384 97.5909 41.9479C97.05 41.7498 96.631 41.4984 96.3339 41.1937L96.6653 40.5424C96.9472 40.8166 97.3243 41.049 97.7966 41.2394C98.2765 41.4223 98.7793 41.5137 99.305 41.5137C99.8078 41.5137 100.215 41.4527 100.528 41.3308C100.848 41.2013 101.08 41.0299 101.225 40.8166C101.377 40.6033 101.453 40.3671 101.453 40.1081C101.453 39.7958 101.362 39.5444 101.179 39.3539C101.004 39.1635 100.771 39.0149 100.482 38.9083C100.193 38.794 99.8725 38.6949 99.5221 38.6111C99.1717 38.5273 98.8212 38.4397 98.4708 38.3483C98.1204 38.2493 97.7966 38.1198 97.4995 37.9598C97.21 37.7998 96.9738 37.5903 96.791 37.3313C96.6158 37.0646 96.5282 36.718 96.5282 36.2914C96.5282 35.8953 96.631 35.5334 96.8367 35.2058C97.05 34.8706 97.3738 34.604 97.808 34.4059C98.2423 34.2002 98.7984 34.0974 99.4764 34.0974C99.9259 34.0974 100.372 34.1621 100.813 34.2916C101.255 34.4135 101.636 34.5849 101.956 34.8059L101.67 35.4801C101.328 35.2515 100.962 35.0839 100.573 34.9773C100.193 34.8706 99.823 34.8173 99.465 34.8173C98.985 34.8173 98.5889 34.882 98.2765 35.0115C97.9642 35.1411 97.7318 35.3163 97.5795 35.5372C97.4347 35.7505 97.3623 35.9943 97.3623 36.2685C97.3623 36.5809 97.45 36.8323 97.6252 37.0227C97.808 37.2132 98.0442 37.3618 98.3337 37.4684C98.6308 37.5751 98.9546 37.6703 99.305 37.7541C99.6554 37.8379 100.002 37.9293 100.345 38.0284C100.695 38.1274 101.015 38.2569 101.305 38.4169C101.602 38.5692 101.838 38.7749 102.013 39.034C102.196 39.293 102.288 39.632 102.288 40.051C102.288 40.4395 102.181 40.8014 101.968 41.1366C101.754 41.4642 101.427 41.7308 100.985 41.9365C100.551 42.1346 99.9906 42.2336 99.305 42.2336ZM104.884 37.7427H109.112V38.4626H104.884V37.7427ZM104.976 41.4337H109.787V42.165H104.13V34.1659H109.615V34.8973H104.976V41.4337Z" fill="#F7CB57"/>
<defs>
<clipPath id="clip0_1_3153">
<rect width="24.9323" height="35.3208" fill="white" transform="translate(0 6.23242)"/>
</clipPath>
</defs>
</svg>
