<svg width="32" height="32" viewBox="0 0 32 32" fill="none" xmlns="http://www.w3.org/2000/svg">
<path d="M6.6665 19.0483C4.19802 20.1373 2.6665 21.6548 2.6665 23.3332C2.6665 26.6469 8.63604 29.3332 15.9998 29.3332C23.3636 29.3332 29.3332 26.6469 29.3332 23.3332C29.3332 21.6548 27.8017 20.1373 25.3332 19.0483" stroke="white" stroke-width="2" stroke-linecap="round" stroke-linejoin="round"/>
<path d="M16 22.6665C18 18.6665 24 16.0848 24 10.6665C24 6.24823 20.4183 2.6665 16 2.6665C11.5817 2.6665 8 6.24823 8 10.6665C8 16.0848 14 18.6665 16 22.6665Z" stroke="#FFCB40" stroke-width="2" stroke-linecap="round" stroke-linejoin="round"/>
<path d="M16 11.9998C16.7364 11.9998 17.3333 11.4029 17.3333 10.6665C17.3333 9.93012 16.7364 9.33317 16 9.33317C15.2636 9.33317 14.6667 9.93012 14.6667 10.6665C14.6667 11.4029 15.2636 11.9998 16 11.9998Z" stroke="#FFCB40" stroke-width="2" stroke-linecap="round" stroke-linejoin="round"/>
</svg>
