<svg width="120" height="120" viewBox="0 0 120 120" fill="none" xmlns="http://www.w3.org/2000/svg">
<rect width="120" height="120" rx="11" fill="#363636"/>
<path opacity="0.5" d="M24.1279 55.612C24.6714 55.612 25.1535 55.7171 25.5743 55.9275C25.995 56.1291 26.3193 56.4316 26.5472 56.8348C26.7839 57.238 26.9023 57.7245 26.9023 58.2943C26.9023 58.8728 26.7795 59.3637 26.5341 59.7669C26.2974 60.1701 25.9687 60.4725 25.548 60.6741C25.136 60.8757 24.6626 60.9766 24.1279 60.9766H20.8408V65H19.9467V55.612H24.1279ZM23.9307 60.2139C24.5706 60.2139 25.0746 60.0562 25.4428 59.7406C25.8197 59.4163 26.0082 58.9342 26.0082 58.2943C26.0082 57.6894 25.8285 57.2205 25.4691 56.8874C25.1184 56.5455 24.5969 56.3746 23.9044 56.3746H20.8408V60.2139H23.9307ZM31.2923 58.9517C30.819 58.9517 30.3982 59.0613 30.0301 59.2804C29.6707 59.4908 29.3902 59.7844 29.1886 60.1613C28.9957 60.5295 28.8993 60.9415 28.8993 61.3973V65H28.0709V58.2154H28.8335V59.8063H28.8598C29.0615 59.2716 29.3726 58.8596 29.7934 58.5704C30.2141 58.2723 30.7006 58.1233 31.2529 58.1233H31.4238V58.9517H31.2923ZM34.9307 58.0181C35.5969 58.0181 36.171 58.1803 36.6531 58.5046C37.1352 58.8202 37.5034 59.2541 37.7576 59.8063C38.0118 60.3498 38.1389 60.9503 38.1389 61.6077C38.1389 62.2739 38.0118 62.8831 37.7576 63.4353C37.5034 63.9788 37.1308 64.4083 36.64 64.7239C36.1579 65.0394 35.5881 65.1972 34.9307 65.1972C34.2732 65.1972 33.6991 65.0394 33.2082 64.7239C32.7261 64.3996 32.3579 63.9657 32.1037 63.4222C31.8495 62.8787 31.7224 62.2739 31.7224 61.6077C31.7224 60.9415 31.8495 60.3367 32.1037 59.7932C32.3579 59.2497 32.7261 58.8202 33.2082 58.5046C33.6991 58.1803 34.2732 58.0181 34.9307 58.0181ZM32.5508 61.6077C32.5508 62.1161 32.6428 62.5938 32.8269 63.0409C33.0197 63.4792 33.2959 63.8342 33.6553 64.1059C34.0146 64.3689 34.4398 64.5004 34.9307 64.5004C35.4303 64.5004 35.8598 64.3645 36.2192 64.0928C36.5786 63.821 36.8503 63.466 37.0344 63.0277C37.2185 62.5807 37.3105 62.1073 37.3105 61.6077C37.3105 61.1168 37.2185 60.6522 37.0344 60.2139C36.8591 59.7669 36.5874 59.4075 36.2192 59.1358C35.8598 58.8553 35.4259 58.715 34.9175 58.715C34.4266 58.715 34.0015 58.8509 33.6421 59.1226C33.2915 59.3856 33.0197 59.7406 32.8269 60.1876C32.6428 60.6259 32.5508 61.0993 32.5508 61.6077ZM45.3399 65H44.5773V63.7114H44.551C44.4282 64.0095 44.2354 64.2724 43.9724 64.5004C43.7182 64.7283 43.4289 64.8992 43.1046 65.0131C42.7803 65.1359 42.456 65.1972 42.1316 65.1972C41.483 65.1972 40.9263 65.0438 40.4618 64.737C40.006 64.4215 39.6597 63.9919 39.423 63.4485C39.1951 62.905 39.0812 62.2914 39.0812 61.6077C39.0812 60.9415 39.1951 60.3367 39.423 59.7932C39.6509 59.2497 39.9928 58.8202 40.4486 58.5046C40.9132 58.1803 41.4742 58.0181 42.1316 58.0181C42.4735 58.0181 42.8022 58.0795 43.1178 58.2022C43.4421 58.3162 43.7226 58.4871 43.9593 58.715C44.2047 58.9342 44.38 59.1971 44.4852 59.5039H44.5115V55.612H45.3399V65ZM39.9095 61.6077C39.9095 62.1249 39.9884 62.6026 40.1462 63.0409C40.3127 63.4792 40.5626 63.8342 40.8957 64.1059C41.2288 64.3689 41.6407 64.5004 42.1316 64.5004C42.6576 64.5004 43.0959 64.3733 43.4465 64.119C43.8059 63.8561 44.0732 63.5055 44.2485 63.0672C44.4239 62.6289 44.5115 62.1424 44.5115 61.6077C44.5115 61.0817 44.4282 60.604 44.2617 60.1745C44.0951 59.7362 43.8322 59.3856 43.4728 59.1226C43.1221 58.8509 42.6751 58.715 42.1316 58.715C41.632 58.715 41.2156 58.8509 40.8825 59.1226C40.5494 59.3943 40.304 59.7494 40.1462 60.1876C39.9884 60.6259 39.9095 61.0993 39.9095 61.6077ZM47.7358 62.4623C47.7358 62.8919 47.784 63.2556 47.8804 63.5537C47.9856 63.8517 48.1697 64.084 48.4326 64.2505C48.6956 64.4171 49.0638 64.5004 49.5371 64.5004C49.9929 64.5004 50.3742 64.3776 50.681 64.1322C50.9878 63.878 51.2157 63.5449 51.3648 63.1329C51.5138 62.7122 51.5883 62.2563 51.5883 61.7655V58.2154H52.4166V65H51.654V63.7772H51.6277C51.4086 64.2242 51.093 64.5749 50.681 64.8291C50.2691 65.0745 49.8045 65.1972 49.2873 65.1972C48.4633 65.1972 47.8585 64.9781 47.4728 64.5398C47.0959 64.0928 46.9074 63.4529 46.9074 62.6201V58.2154H47.7358V62.4623ZM56.8491 58.0181C57.638 58.0181 58.2692 58.2241 58.7425 58.6361C59.2159 59.0481 59.5007 59.6179 59.5972 60.3454H58.7688C58.6549 59.8107 58.4357 59.4075 58.1114 59.1358C57.7871 58.8553 57.3663 58.715 56.8491 58.715C56.3495 58.715 55.92 58.8553 55.5606 59.1358C55.2012 59.4075 54.9294 59.7625 54.7454 60.2008C54.5613 60.6391 54.4692 61.108 54.4692 61.6077C54.4692 62.1073 54.5613 62.5807 54.7454 63.0277C54.9294 63.466 55.2012 63.821 55.5606 64.0928C55.92 64.3645 56.3495 64.5004 56.8491 64.5004C57.1735 64.5004 57.4803 64.4215 57.7695 64.2637C58.0588 64.0971 58.2955 63.8692 58.4795 63.58C58.6724 63.2819 58.7863 62.9444 58.8214 62.5675H59.6498C59.5796 63.111 59.4175 63.58 59.1633 63.9744C58.9178 64.3689 58.5935 64.6713 58.1903 64.8817C57.7958 65.092 57.3488 65.1972 56.8491 65.1972C56.1917 65.1972 55.6176 65.0394 55.1267 64.7239C54.6446 64.3996 54.2764 63.9657 54.0222 63.4222C53.768 62.8787 53.6409 62.2739 53.6409 61.6077C53.6409 60.924 53.7724 60.3104 54.0353 59.7669C54.2983 59.2234 54.6709 58.7983 55.153 58.4915C55.6439 58.1759 56.2092 58.0181 56.8491 58.0181ZM62.1158 58.2154H63.4964V58.9122H62.1158V63.5405C62.1158 63.8473 62.1684 64.0665 62.2736 64.1979C62.3876 64.3207 62.5892 64.382 62.8784 64.382C63.0538 64.382 63.2597 64.3689 63.4964 64.3426V65.0526C63.4088 65.0526 63.3036 65.057 63.1809 65.0657C63.0669 65.0745 62.9267 65.0789 62.7601 65.0789C62.3919 65.0789 62.0983 65.0351 61.8792 64.9474C61.6688 64.851 61.5154 64.6976 61.419 64.4872C61.3313 64.2768 61.2875 63.9832 61.2875 63.6063V58.9122H60.1041V58.2154H61.2875V56.1773H62.1158V58.2154ZM69.1926 56.94H68.3643V55.612H69.1926V56.94ZM69.1926 65H68.3643V58.2154H69.1926V65ZM73.8021 58.0181C74.2754 58.0181 74.6874 58.1365 75.038 58.3731C75.3974 58.6011 75.6341 58.9254 75.7481 59.3461C75.9409 58.9166 76.2302 58.5879 76.6159 58.36C77.0016 58.1321 77.4355 58.0181 77.9176 58.0181C78.6627 58.0181 79.2193 58.2197 79.5874 58.623C79.9644 59.0174 80.1528 59.6003 80.1528 60.3717V65H79.3245V60.4243C79.3245 59.8283 79.193 59.3943 78.93 59.1226C78.6758 58.8509 78.2726 58.715 77.7203 58.715C77.098 58.715 76.6334 58.9298 76.3266 59.3593C76.0286 59.7888 75.8795 60.3936 75.8795 61.1738V65H75.0512V60.4112C75.0512 59.8589 74.9329 59.4382 74.6962 59.1489C74.4595 58.8596 74.1045 58.715 73.6312 58.715C72.9562 58.715 72.4478 58.9429 72.1059 59.3987C71.7728 59.8458 71.6063 60.4506 71.6063 61.2132V65H70.7779V58.2154H71.5405V59.3593H71.58C72.0446 58.4652 72.7853 58.0181 73.8021 58.0181ZM84.413 58.0181C86.0698 58.0181 86.8981 58.7457 86.8981 60.2008V63.8035C86.8981 64.1366 87.0603 64.3031 87.3846 64.3031C87.4723 64.3031 87.5599 64.2856 87.6476 64.2505V64.9474C87.4723 64.9825 87.2969 65 87.1216 65C86.7622 65 86.508 64.9123 86.359 64.737C86.21 64.5617 86.1355 64.2681 86.1355 63.8561V63.8166H86.1092C85.8813 64.1673 85.649 64.4434 85.4123 64.645C85.1757 64.8466 84.9127 64.9869 84.6234 65.0657C84.3429 65.1534 84.0142 65.1972 83.6373 65.1972C83.1815 65.1972 82.7826 65.1227 82.4408 64.9737C82.0989 64.8159 81.8315 64.588 81.6387 64.29C81.4546 63.9919 81.3626 63.6326 81.3626 63.2118C81.3626 62.5631 81.5861 62.0766 82.0332 61.7523C82.2698 61.5858 82.5722 61.4499 82.9404 61.3447C83.3173 61.2395 83.8915 61.1475 84.6629 61.0686C85.0573 61.0248 85.3422 60.9809 85.5175 60.9371C85.6928 60.8933 85.8287 60.81 85.9251 60.6873C86.0215 60.5646 86.0698 60.3717 86.0698 60.1088C86.0698 59.6179 85.9207 59.2629 85.6227 59.0437C85.3247 58.8246 84.882 58.715 84.2947 58.715C83.7337 58.715 83.2954 58.8509 82.9798 59.1226C82.6643 59.3856 82.4977 59.7757 82.4802 60.2928H81.6518C81.6957 59.5477 81.9543 58.9824 82.4276 58.5967C82.901 58.211 83.5628 58.0181 84.413 58.0181ZM86.0435 61.2921C85.9909 61.3798 85.8944 61.4499 85.7542 61.5025C85.6227 61.5463 85.4342 61.5858 85.1888 61.6208L84.7812 61.6866C84.2114 61.7567 83.7951 61.8268 83.5321 61.897C83.1201 62.0021 82.7914 62.1468 82.5459 62.3309C82.3093 62.5149 82.1909 62.791 82.1909 63.1592C82.1909 63.4222 82.2611 63.6589 82.4013 63.8692C82.5416 64.0708 82.7256 64.2286 82.9536 64.3426C83.1815 64.4478 83.4313 64.5004 83.703 64.5004C84.1501 64.5004 84.5533 64.4127 84.9127 64.2374C85.2721 64.0533 85.5526 63.8035 85.7542 63.4879C85.9646 63.1636 86.0698 62.7954 86.0698 62.3834V61.2921H86.0435ZM91.2707 58.0181C91.5863 58.0181 91.8843 58.0795 92.1648 58.2022C92.4541 58.3162 92.7083 58.4783 92.9274 58.6887C93.1466 58.8903 93.3131 59.1226 93.4271 59.3856H93.4534V58.2154H94.2817V64.4741C94.2817 65.5522 94.0363 66.3587 93.5454 66.8934C93.0545 67.4369 92.3007 67.7086 91.2839 67.7086C90.7754 67.7086 90.3109 67.6297 89.8901 67.4719C89.4781 67.3141 89.1406 67.0775 88.8777 66.7619C88.6235 66.4551 88.4832 66.0869 88.4569 65.6574H89.2853C89.3554 66.0869 89.5658 66.42 89.9164 66.6567C90.267 66.8934 90.7185 67.0117 91.2707 67.0117C92.0246 67.0117 92.5768 66.797 92.9274 66.3674C93.278 65.9379 93.4534 65.3068 93.4534 64.4741V63.5274H93.4271C93.2342 63.9657 92.945 64.3075 92.5593 64.553C92.1736 64.7984 91.7441 64.9211 91.2707 64.9211C90.6045 64.9211 90.0391 64.7809 89.5746 64.5004C89.1187 64.2111 88.7769 63.8079 88.549 63.2907C88.3211 62.7648 88.2071 62.1468 88.2071 61.4368C88.2071 60.7881 88.3298 60.2052 88.5753 59.688C88.8295 59.1621 89.1889 58.7545 89.6534 58.4652C90.118 58.1672 90.6571 58.0181 91.2707 58.0181ZM89.0355 61.5288C89.0355 62.0109 89.1187 62.458 89.2853 62.8699C89.4518 63.2732 89.7017 63.6019 90.0347 63.8561C90.3766 64.1015 90.7886 64.2242 91.2707 64.2242C91.709 64.2242 92.0903 64.1059 92.4146 63.8692C92.7477 63.6238 93.0019 63.2951 93.1772 62.8831C93.3613 62.4711 93.4534 62.0197 93.4534 61.5288C93.4534 61.0379 93.3745 60.5821 93.2167 60.1613C93.0677 59.7318 92.8266 59.3856 92.4935 59.1226C92.1604 58.8509 91.7484 58.715 91.2576 58.715C90.8017 58.715 90.4029 58.8377 90.061 59.0832C89.728 59.3198 89.4737 59.6529 89.2984 60.0825C89.1231 60.5032 89.0355 60.9853 89.0355 61.5288ZM98.5769 58.0181C99.1992 58.0181 99.7339 58.1715 100.181 58.4783C100.628 58.7851 100.97 59.2147 101.207 59.7669C101.443 60.3104 101.562 60.9327 101.562 61.634V61.8312H96.3416C96.3504 62.2958 96.438 62.7341 96.6046 63.1461C96.7711 63.5493 97.021 63.878 97.354 64.1322C97.6871 64.3776 98.0947 64.5004 98.5769 64.5004C99.1291 64.5004 99.5849 64.3557 99.9443 64.0665C100.312 63.7684 100.567 63.3345 100.707 62.7648H101.535C101.342 63.5887 101.001 64.2023 100.51 64.6055C100.028 65 99.3833 65.1972 98.5769 65.1972C97.9107 65.1972 97.3497 65.0482 96.8939 64.7502C96.438 64.4434 96.0918 64.0182 95.8551 63.4748C95.6272 62.9313 95.5133 62.3089 95.5133 61.6077C95.5133 60.9678 95.6228 60.3761 95.842 59.8326C96.0699 59.2804 96.4117 58.8421 96.8676 58.5178C97.3321 58.1847 97.9019 58.0181 98.5769 58.0181ZM100.733 61.1343C100.716 60.7048 100.619 60.306 100.444 59.9378C100.269 59.5697 100.019 59.276 99.6945 59.0569C99.3702 58.829 98.9932 58.715 98.5637 58.715C98.1693 58.715 97.8142 58.8158 97.4987 59.0174C97.1919 59.2103 96.9377 59.4908 96.7361 59.8589C96.5345 60.2183 96.403 60.6435 96.3416 61.1343H100.733Z" fill="white"/>
</svg>
