<svg width="32" height="32" viewBox="0 0 32 32" fill="none" xmlns="http://www.w3.org/2000/svg">
<path d="M24.6667 10.6667V4M7.33333 28V21.3333M21.3333 7.33333H28M4 24.6667H10.6667" stroke="white" stroke-width="2" stroke-linecap="round" stroke-linejoin="round"/>
<path d="M8.6665 2.6665L9.71245 4.75839C10.0664 5.46636 10.2434 5.82035 10.4799 6.1271C10.6897 6.39929 10.9337 6.64331 11.2059 6.85313C11.5127 7.08958 11.8666 7.26657 12.5746 7.62056L14.6665 8.6665L12.5746 9.71245C11.8666 10.0664 11.5127 10.2434 11.2059 10.4799C10.9337 10.6897 10.6897 10.9337 10.4799 11.2059C10.2434 11.5127 10.0664 11.8666 9.71245 12.5746L8.6665 14.6665L7.62056 12.5746C7.26657 11.8666 7.08958 11.5127 6.85313 11.2059C6.64331 10.9337 6.39929 10.6897 6.1271 10.4799C5.82035 10.2434 5.46636 10.0664 4.75839 9.71245L2.6665 8.6665L4.75839 7.62056C5.46636 7.26657 5.82035 7.08958 6.1271 6.85313C6.39929 6.64331 6.64331 6.39929 6.85313 6.1271C7.08958 5.82035 7.26657 5.46636 7.62056 4.75839L8.6665 2.6665Z" stroke="#FFCB40" stroke-width="2" stroke-linecap="round" stroke-linejoin="round"/>
<path d="M22.6667 16L23.9348 18.5363C24.2888 19.2443 24.4658 19.5983 24.7023 19.905C24.9121 20.1772 25.1561 20.4213 25.4283 20.6311C25.735 20.8675 26.089 21.0445 26.797 21.3985L29.3333 22.6667L26.797 23.9348C26.089 24.2888 25.735 24.4658 25.4283 24.7023C25.1561 24.9121 24.9121 25.1561 24.7023 25.4283C24.4658 25.735 24.2888 26.089 23.9348 26.797L22.6667 29.3333L21.3985 26.797C21.0445 26.089 20.8675 25.735 20.6311 25.4283C20.4213 25.1561 20.1772 24.9121 19.905 24.7023C19.5983 24.4658 19.2443 24.2888 18.5363 23.9348L16 22.6667L18.5363 21.3985C19.2443 21.0445 19.5983 20.8675 19.905 20.6311C20.1772 20.4213 20.4213 20.1772 20.6311 19.905C20.8675 19.5983 21.0445 19.2443 21.3985 18.5363L22.6667 16Z" stroke="#FFCB40" stroke-width="2" stroke-linecap="round" stroke-linejoin="round"/>
</svg>
