<svg width="102" height="102" viewBox="0 0 102 102" fill="none" xmlns="http://www.w3.org/2000/svg">
<path d="M51.0005 13.812C43.6455 13.812 36.4557 15.993 30.3402 20.0792C24.2248 24.1655 19.4584 29.9733 16.6437 36.7685C13.8291 43.5636 13.0927 51.0408 14.5276 58.2544C15.9624 65.4681 19.5042 72.0943 24.705 77.295C29.9057 82.4958 36.5319 86.0376 43.7456 87.4725C50.9593 88.9073 58.4364 88.1709 65.2315 85.3563C72.0267 82.5416 77.8346 77.7752 81.9208 71.6598C86.007 65.5443 88.188 58.3545 88.188 50.9995C88.1768 41.1402 84.2552 31.688 77.2836 24.7164C70.312 17.7448 60.8598 13.8233 51.0005 13.812ZM66.173 44.582L51.5955 61.582C51.3143 61.909 50.9697 62.1755 50.5825 62.3655C50.1954 62.5554 49.7737 62.6648 49.343 62.687C48.5384 62.6914 47.7627 62.3872 47.1755 61.837L36.253 51.637C35.7563 51.0464 35.4907 50.2956 35.5056 49.5239C35.5205 48.7523 35.8148 48.0123 36.3339 47.4413C36.8531 46.8702 37.5618 46.5069 38.3285 46.4188C39.0952 46.3306 39.8678 46.5236 40.503 46.962L49.003 54.9095L61.413 40.417C61.6921 40.0989 62.0311 39.8388 62.4106 39.6517C62.7902 39.4646 63.2029 39.3541 63.6251 39.3264C64.0474 39.2988 64.471 39.3546 64.8717 39.4907C65.2724 39.6268 65.6424 39.8405 65.9605 40.1195C66.2786 40.3986 66.5387 40.7376 66.7258 41.1171C66.9129 41.4967 67.0234 41.9094 67.0511 42.3316C67.0787 42.7539 67.0229 43.1775 66.8868 43.5782C66.7507 43.9789 66.5371 44.3489 66.258 44.667L66.173 44.582Z" fill="#FFCB40"/>
</svg>
