<svg width="48" height="32" viewBox="0 0 48 32" fill="none" xmlns="http://www.w3.org/2000/svg">
<rect width="48" height="32" rx="4" fill="#1434CB"/>
<path d="M20.5 11L17.5 21H15L13.2 13.5C13.1 13.2 13 13 12.8 12.9C12.3 12.6 11.6 12.4 11 12.2L11 12H14.8C15.3 12 15.7 12.4 15.8 12.9L16.8 18.1L19.3 12H21.8L20.5 11ZM22 21L23.9 12H26.1L24.2 21H22ZM31.8 15.8C31.8 15.3 31.4 15 30.8 14.9C30.3 14.8 29.6 14.7 29.6 14.4C29.6 14.2 29.9 14 30.3 14C31 14 31.6 14.2 32.1 14.5L32.5 12.9C32 12.7 31.4 12.5 30.7 12.5C28.4 12.5 26.8 13.7 26.8 15.4C26.8 16.6 27.9 17.2 28.7 17.6C29.6 18 29.9 18.3 29.9 18.6C29.9 19.1 29.3 19.3 28.7 19.3C27.9 19.3 27.1 19.1 26.4 18.7L26 20.4C26.7 20.7 27.5 20.9 28.3 20.9C30.8 21 32.3 19.8 32.3 18C32.3 16.2 31.8 15.8 31.8 15.8ZM41 21L39.3 12H37.5C37.1 12 36.7 12.2 36.5 12.6L33 21H35.5L35.9 19.8H38.9L39.2 21H41ZM36.7 17.9L37.7 14.9L38.3 17.9H36.7Z" fill="white"/>
</svg>
