<svg width="175" height="175" viewBox="0 0 175 175" fill="none" xmlns="http://www.w3.org/2000/svg">
<path d="M87.5007 23.6979C74.8819 23.6979 62.5464 27.4399 52.0542 34.4505C41.562 41.4612 33.3843 51.4257 28.5553 63.084C23.7263 74.7423 22.4628 87.5708 24.9246 99.9472C27.3864 112.324 33.463 123.692 42.3858 132.615C51.3087 141.538 62.6772 147.614 75.0535 150.076C87.4299 152.538 100.258 151.274 111.917 146.445C123.575 141.616 133.54 133.439 140.55 122.947C147.561 112.454 151.303 100.119 151.303 87.5C151.284 70.5846 144.555 54.3675 132.594 42.4064C120.633 30.4454 104.416 23.7172 87.5007 23.6979ZM113.532 76.4896L88.5216 105.656C88.0391 106.217 87.4479 106.675 86.7836 107C86.1194 107.326 85.3959 107.514 84.657 107.552C83.2765 107.56 81.9456 107.038 80.9382 106.094L62.1986 88.5938C61.3464 87.5804 60.8907 86.2922 60.9163 84.9684C60.9418 83.6445 61.4468 82.3749 62.3375 81.3952C63.2281 80.4154 64.444 79.7921 65.7595 79.6409C67.0749 79.4897 68.4005 79.8208 69.4903 80.5729L84.0736 94.2084L105.365 69.3438C105.844 68.798 106.426 68.3518 107.077 68.0308C107.728 67.7097 108.436 67.5201 109.161 67.4727C109.885 67.4253 110.612 67.5211 111.299 67.7545C111.987 67.988 112.622 68.3546 113.167 68.8334C113.713 69.3121 114.159 69.8937 114.48 70.5449C114.801 71.1961 114.991 71.9042 115.038 72.6287C115.086 73.3532 114.99 74.0799 114.757 74.7674C114.523 75.4549 114.157 76.0896 113.678 76.6354L113.532 76.4896Z" fill="#FFCB40"/>
</svg>
