<svg width="137" height="137" viewBox="0 0 137 137" fill="none" xmlns="http://www.w3.org/2000/svg">
<path d="M68.5004 18.5521C58.6217 18.5521 48.9647 21.4815 40.7509 26.9699C32.537 32.4582 26.135 40.259 22.3546 49.3858C18.5741 58.5126 17.585 68.5555 19.5122 78.2444C21.4395 87.9333 26.1966 96.8332 33.1819 103.819C40.1673 110.804 49.0671 115.561 58.7561 117.488C68.445 119.415 78.4879 118.426 87.6147 114.646C96.7415 110.865 104.542 104.464 110.031 96.2496C115.519 88.0357 118.448 78.3788 118.448 68.5C118.433 55.2577 113.166 42.562 103.802 33.1982C94.4385 23.8344 81.7428 18.5672 68.5004 18.5521ZM88.8792 59.8805L69.2996 82.7138C68.9219 83.153 68.4591 83.511 67.9391 83.7661C67.419 84.0212 66.8526 84.1681 66.2742 84.198C65.1934 84.2038 64.1516 83.7953 63.3629 83.0563L48.6925 69.3563C48.0253 68.563 47.6686 67.5545 47.6886 66.5181C47.7086 65.4818 48.1039 64.4878 48.8012 63.7208C49.4985 62.9538 50.4503 62.4658 51.4801 62.3475C52.5099 62.2291 53.5477 62.4883 54.4008 63.0771L65.8175 73.7517L82.4858 54.2863C82.8607 53.859 83.316 53.5097 83.8258 53.2584C84.3356 53.0071 84.8899 52.8586 85.4571 52.8215C86.0242 52.7844 86.5931 52.8594 87.1313 53.0421C87.6695 53.2249 88.1665 53.5119 88.5938 53.8867C89.0211 54.2615 89.3703 54.7168 89.6217 55.2266C89.873 55.7364 90.0214 56.2907 90.0585 56.8579C90.0957 57.4251 90.0207 57.994 89.8379 58.5322C89.6551 59.0704 89.3682 59.5673 88.9933 59.9946L88.8792 59.8805Z" fill="#FFCB40"/>
</svg>
