<svg width="32" height="32" viewBox="0 0 32 32" fill="none" xmlns="http://www.w3.org/2000/svg">
<path d="M14.6667 5.3335H10.4C8.15979 5.3335 7.03968 5.3335 6.18404 5.76947C5.43139 6.15296 4.81947 6.76489 4.43597 7.51753C4 8.37318 4 9.49329 4 11.7335V21.6002C4 23.8404 4 24.9605 4.43597 25.8161C4.81947 26.5688 5.43139 27.1807 6.18404 27.5642C7.03968 28.0002 8.15979 28.0002 10.4 28.0002H20.2667C22.5069 28.0002 23.627 28.0002 24.4826 27.5642C25.2353 27.1807 25.8472 26.5688 26.2307 25.8161C26.6667 24.9605 26.6667 23.8404 26.6667 21.6002V17.3335" stroke="white" stroke-width="2" stroke-linecap="round" stroke-linejoin="round"/>
<path d="M17.3335 22.6668H9.3335M20.0002 17.3335H14.6668H9.3335" stroke="#FFCB40" stroke-width="2" stroke-linecap="round" stroke-linejoin="round"/>
<path d="M26.8284 5.17157C28.3905 6.73367 28.3905 9.26633 26.8284 10.8284C25.2663 12.3905 22.7337 12.3905 21.1716 10.8284C19.6095 9.26633 19.6095 6.73367 21.1716 5.17157C22.7337 3.60948 25.2663 3.60948 26.8284 5.17157Z" stroke="#FFCB40" stroke-width="2" stroke-linecap="round" stroke-linejoin="round"/>
</svg>
